<?xml version="1.0" encoding="utf-8"?>
<!-- Generator: Adobe Illustrator 26.0.3, SVG Export Plug-In . SVG Version: 6.00 Build 0)  -->
<svg version="1.1" id="Ebene_1" xmlns="http://www.w3.org/2000/svg" xmlns:xlink="http://www.w3.org/1999/xlink" x="0px" y="0px"
	 viewBox="0 0 136.16 27.28" style="enable-background:new 0 0 136.16 27.28;" xml:space="preserve">
<style type="text/css">
	.st0{fill:none;stroke:#000000;stroke-width:2;stroke-linecap:round;stroke-linejoin:round;stroke-miterlimit:10;}
</style>
<g>
	<path class="st0" d="M59.13,2.88c9.29,0.62,16.21,9.28,8.94,18.47c-7.87,7.3-19.98,6.09-27.45-0.96
		c-3.89-3.67-7.15-7.87-10.49-12.01c-5.21-6.44-12.35-8.34-19.99-6.96c-7.1,1.29-9.78,6.8-9.01,11.45c0.76,4.55,6.05,8.31,11,7.47
		c3.55-0.6,5.05-2.11,5.56-4.96c0.59-3.31-1.04-5.81-3.59-6.96c-1.86-0.84-6.36-0.84-6.52,3.03c0.24,3.4,4.25,3.9,7.06,0.92"/>
	<path class="st0" d="M77.04,2.88c-9.29,0.62-16.21,9.28-8.94,18.47c7.87,7.3,19.98,6.09,27.45-0.96
		c3.89-3.67,7.15-7.87,10.49-12.01c5.21-6.44,12.35-8.34,19.99-6.96c7.1,1.29,9.78,6.8,9.01,11.45c-0.76,4.55-6.05,8.31-11,7.47
		c-3.55-0.6-5.05-2.11-5.56-4.96c-0.59-3.31,1.04-5.81,3.59-6.96c1.86-0.84,6.36-0.84,6.52,3.03c-0.24,3.4-4.25,3.9-7.06,0.92"/>
</g>
</svg>
